<svg id="download-on-the-app-store-apple-2" xmlns="http://www.w3.org/2000/svg" xmlns:xlink="http://www.w3.org/1999/xlink" width="146.812" height="43.506" viewBox="0 0 146.812 43.506">
  <defs>
    <linearGradient id="linear-gradient" x1="-0.474" y1="0.887" x2="-0.474" y2="1.082" gradientUnits="objectBoundingBox">
      <stop offset="0" stop-color="#1a1a1a" stop-opacity="0.102"/>
      <stop offset="0.123" stop-color="#212121" stop-opacity="0.153"/>
      <stop offset="0.308" stop-color="#353535" stop-opacity="0.227"/>
      <stop offset="0.532" stop-color="#575757" stop-opacity="0.318"/>
      <stop offset="0.783" stop-color="#858585" stop-opacity="0.42"/>
      <stop offset="1" stop-color="#b3b3b3" stop-opacity="0.51"/>
    </linearGradient>
  </defs>
  <path id="Path_921" data-name="Path 921" d="M141.666,43.506H5.146A5.144,5.144,0,0,1,0,38.361V5.145A5.144,5.144,0,0,1,5.146,0h136.52a5.144,5.144,0,0,1,5.146,5.145V38.361a5.144,5.144,0,0,1-5.146,5.145Z" fill="#a6a6a6"/>
  <path id="Path_922" data-name="Path 922" d="M161.671,53.8a4.151,4.151,0,0,1-4.159,4.158H20.992A4.171,4.171,0,0,1,16.809,53.8V20.586A4.191,4.191,0,0,1,20.992,16.4h136.52a4.176,4.176,0,0,1,4.183,4.181L161.671,53.8Z" transform="translate(-15.822 -15.441)"/>
  <path id="Path_923" data-name="Path 923" d="M255.446,129.984a6.285,6.285,0,0,1,3.008-5.286,6.442,6.442,0,0,0-5.1-2.748c-2.138-.235-4.206,1.292-5.31,1.292s-2.8-1.269-4.605-1.222a6.824,6.824,0,0,0-5.71,3.477c-2.467,4.275-.634,10.548,1.739,13.977,1.175,1.691,2.561,3.571,4.37,3.5,1.762-.07,2.42-1.128,4.559-1.128,2.115,0,2.726,1.128,4.582,1.081,1.9-.023,3.1-1.691,4.23-3.406a13.847,13.847,0,0,0,1.927-3.947A6.112,6.112,0,0,1,255.446,129.984Zm-3.478-10.313a6.2,6.2,0,0,0,1.41-4.44,6.388,6.388,0,0,0-4.089,2.114,5.9,5.9,0,0,0-1.457,4.275A5.209,5.209,0,0,0,251.969,119.672Z" transform="translate(-222.667 -108.466)" fill="#fff"/>
  <path id="Path_924" data-name="Path 924" d="M1240.554,0H1167.43l28.643,43.506h44.481a5.144,5.144,0,0,0,5.146-5.145V5.145A5.144,5.144,0,0,0,1240.554,0Z" transform="translate(-1098.888)" fill="url(#linear-gradient)"/>
  <path id="Path_925" data-name="Path 925" d="M798.643,148.389h-2.467l-1.363-4.252h-4.7l-1.292,4.252h-2.4l4.653-14.471h2.89Zm-4.229-6.037-1.222-3.782c-.141-.376-.376-1.292-.729-2.725h-.047c-.141.611-.376,1.527-.681,2.725l-1.2,3.782Zm16.19.681a5.9,5.9,0,0,1-1.457,4.2,4.248,4.248,0,0,1-3.219,1.386,3.233,3.233,0,0,1-2.984-1.48v5.473h-2.3V141.365c0-1.1-.023-2.255-.094-3.43h2.044l.141,1.644h.047a4.121,4.121,0,0,1,6.6-.423A5.935,5.935,0,0,1,810.6,143.033Zm-2.35.094a4.4,4.4,0,0,0-.681-2.514,2.383,2.383,0,0,0-2.021-1.034,2.427,2.427,0,0,0-1.551.564,2.564,2.564,0,0,0-.917,1.5,3.674,3.674,0,0,0-.117.7v1.738a2.783,2.783,0,0,0,.7,1.926,2.347,2.347,0,0,0,1.809.775,2.375,2.375,0,0,0,2.044-1.01A4.337,4.337,0,0,0,808.254,143.127Zm14.38-.094a5.9,5.9,0,0,1-1.457,4.2,4.248,4.248,0,0,1-3.219,1.386,3.232,3.232,0,0,1-2.984-1.48v5.473h-2.326V141.365c0-1.1-.024-2.255-.094-3.43H814.6l.141,1.644h.047a4.121,4.121,0,0,1,6.6-.423A5.946,5.946,0,0,1,822.634,143.033Zm-2.373.094a4.4,4.4,0,0,0-.681-2.514,2.383,2.383,0,0,0-2.021-1.034,2.427,2.427,0,0,0-1.551.564,2.566,2.566,0,0,0-.916,1.5,3.121,3.121,0,0,0-.117.7v1.738a2.783,2.783,0,0,0,.7,1.926,2.347,2.347,0,0,0,1.809.775,2.376,2.376,0,0,0,2.044-1.01,4.337,4.337,0,0,0,.728-2.655Zm15.79,1.2a3.844,3.844,0,0,1-1.292,3.007,5.7,5.7,0,0,1-3.948,1.269,7.123,7.123,0,0,1-3.76-.893l.541-1.926a6.37,6.37,0,0,0,3.36.893,3.162,3.162,0,0,0,2.044-.587,1.906,1.906,0,0,0,.728-1.574,2.021,2.021,0,0,0-.611-1.48,5.659,5.659,0,0,0-2-1.128q-3.807-1.409-3.807-4.158a3.621,3.621,0,0,1,1.339-2.913,5.355,5.355,0,0,1,3.548-1.128,7.188,7.188,0,0,1,3.29.681l-.587,1.879a5.69,5.69,0,0,0-2.773-.658,2.87,2.87,0,0,0-1.927.611,1.763,1.763,0,0,0-.587,1.316,1.725,1.725,0,0,0,.658,1.409,7.5,7.5,0,0,0,2.115,1.128,6.948,6.948,0,0,1,2.749,1.762A3.4,3.4,0,0,1,836.051,144.325Zm7.683-4.628h-2.561v5.074c0,1.292.447,1.926,1.363,1.926a3.294,3.294,0,0,0,1.034-.117l.07,1.762a5.374,5.374,0,0,1-1.809.258,2.745,2.745,0,0,1-2.138-.846,4.127,4.127,0,0,1-.775-2.819v-5.262H837.39v-1.738h1.527v-1.9l2.279-.681v2.608h2.561Zm11.514,3.383a5.735,5.735,0,0,1-1.386,3.947,4.93,4.93,0,0,1-3.83,1.6,4.717,4.717,0,0,1-3.666-1.527A5.52,5.52,0,0,1,845,143.245a5.661,5.661,0,0,1,1.41-3.97,4.874,4.874,0,0,1,3.783-1.55,4.767,4.767,0,0,1,3.689,1.527A5.421,5.421,0,0,1,855.248,143.08Zm-2.4.047a4.8,4.8,0,0,0-.611-2.467,2.312,2.312,0,0,0-2.091-1.245,2.358,2.358,0,0,0-2.138,1.245,4.694,4.694,0,0,0-.611,2.514,4.8,4.8,0,0,0,.611,2.467,2.388,2.388,0,0,0,4.206-.023,4.726,4.726,0,0,0,.634-2.49Zm9.939-3.148a3.826,3.826,0,0,0-.728-.07,2.147,2.147,0,0,0-1.88.916,3.527,3.527,0,0,0-.587,2.067v5.473h-2.326v-7.141c0-1.1-.024-2.185-.07-3.289h2.021l.094,2h.07a3.492,3.492,0,0,1,1.151-1.644,2.909,2.909,0,0,1,1.668-.564,4.583,4.583,0,0,1,.587.047Zm10.386,2.7a5.36,5.36,0,0,1-.094,1.057h-6.955a2.989,2.989,0,0,0,1.01,2.373,3.4,3.4,0,0,0,2.279.728,7.722,7.722,0,0,0,2.82-.493l.353,1.6a8.874,8.874,0,0,1-3.5.634,5,5,0,0,1-3.807-1.433,5.319,5.319,0,0,1-1.386-3.829,5.893,5.893,0,0,1,1.292-3.923,4.389,4.389,0,0,1,3.642-1.668,3.871,3.871,0,0,1,3.407,1.668A5.493,5.493,0,0,1,873.177,142.681Zm-2.209-.611a3.159,3.159,0,0,0-.446-1.785,1.993,1.993,0,0,0-1.856-.963,2.211,2.211,0,0,0-1.856.94,3.52,3.52,0,0,0-.681,1.809h4.84ZM789.456,128.8a11.648,11.648,0,0,1-1.668-.094v-7a13.943,13.943,0,0,1,1.974-.141c2.655,0,3.877,1.316,3.877,3.453C793.638,127.458,792.181,128.8,789.456,128.8Zm.376-6.343a5.19,5.19,0,0,0-.916.07v5.309a6.221,6.221,0,0,0,.775.024,2.511,2.511,0,0,0,2.726-2.842A2.313,2.313,0,0,0,789.832,122.455Zm7.613,6.39a2.439,2.439,0,0,1-2.467-2.631,2.493,2.493,0,0,1,2.561-2.7,2.414,2.414,0,0,1,2.467,2.631A2.518,2.518,0,0,1,797.445,128.844Zm.047-4.51c-.822,0-1.363.775-1.363,1.856,0,1.057.541,1.832,1.339,1.832s1.339-.822,1.339-1.856C798.831,125.109,798.291,124.334,797.492,124.334Zm11.067-.728-1.6,5.121H805.9l-.658-2.232c-.165-.54-.305-1.1-.423-1.668H804.8a10.217,10.217,0,0,1-.423,1.668l-.7,2.232h-1.057l-1.5-5.121h1.175l.587,2.443c.141.587.258,1.128.352,1.644h.024c.094-.423.211-.963.423-1.644l.729-2.443h.94l.7,2.4q.247.881.423,1.691h.024a13.661,13.661,0,0,1,.352-1.691l.635-2.4Zm5.9,5.121h-1.128v-2.936c0-.916-.353-1.362-1.034-1.362a1.19,1.19,0,0,0-1.151,1.245v3.054h-1.151v-3.665c0-.446,0-.94-.047-1.456h1.01l.047.8h.024a1.866,1.866,0,0,1,1.621-.893c1.081,0,1.786.822,1.786,2.161Zm3.149,0h-1.151v-7.494h1.151v7.494Zm4.159.117a2.438,2.438,0,0,1-2.467-2.631,2.493,2.493,0,0,1,2.561-2.7,2.414,2.414,0,0,1,2.467,2.631A2.518,2.518,0,0,1,821.765,128.844Zm.047-4.51c-.822,0-1.363.775-1.363,1.856,0,1.057.541,1.832,1.339,1.832s1.339-.822,1.339-1.856C823.127,125.109,822.61,124.334,821.812,124.334Zm7,4.393-.094-.587H828.7a1.759,1.759,0,0,1-1.5.7,1.488,1.488,0,0,1-1.574-1.5c0-1.269,1.1-1.926,3.008-1.926v-.094c0-.681-.352-1.01-1.057-1.01a2.351,2.351,0,0,0-1.339.376l-.235-.752a3.169,3.169,0,0,1,1.762-.446c1.339,0,2.021.7,2.021,2.114v1.879a8.335,8.335,0,0,0,.07,1.222l-1.034.023Zm-.164-2.561c-1.269,0-1.9.305-1.9,1.034a.723.723,0,0,0,.775.8,1.1,1.1,0,0,0,1.128-1.034Zm6.65,2.561-.047-.822h-.023a1.731,1.731,0,0,1-1.645.94,2.331,2.331,0,0,1-2.162-2.608c0-1.6.94-2.725,2.256-2.725a1.568,1.568,0,0,1,1.457.7h.024v-2.983h1.151v6.108c0,.493.023.963.047,1.386Zm-.164-3.007a1.239,1.239,0,0,0-1.2-1.339c-.846,0-1.363.752-1.363,1.809,0,1.034.54,1.738,1.339,1.738a1.278,1.278,0,0,0,1.222-1.362Zm8.389,3.124a2.439,2.439,0,0,1-2.467-2.631,2.493,2.493,0,0,1,2.561-2.7,2.414,2.414,0,0,1,2.467,2.631A2.518,2.518,0,0,1,843.523,128.844Zm.047-4.51c-.822,0-1.339.775-1.339,1.856,0,1.057.54,1.832,1.339,1.832s1.339-.822,1.339-1.856C844.886,125.109,844.369,124.334,843.57,124.334Zm8.647,4.393h-1.151v-2.936c0-.916-.352-1.362-1.034-1.362a1.171,1.171,0,0,0-1.128,1.245v3.054h-1.151v-3.665c0-.446,0-.94-.047-1.456h1.01l.047.8h.024a1.866,1.866,0,0,1,1.621-.893c1.081,0,1.786.822,1.786,2.161v3.054Zm7.66-4.275h-1.245v2.49c0,.634.211.94.658.94a2.992,2.992,0,0,0,.517-.047l.023.869a2.343,2.343,0,0,1-.893.117c-.893,0-1.433-.493-1.433-1.785v-2.584h-.752v-.846h.752v-.94l1.128-.329v1.269h1.245Zm6.039,4.275h-1.128v-2.913c0-.916-.352-1.386-1.034-1.386a1.128,1.128,0,0,0-1.151,1.222v3.1h-1.128v-7.517H862.6v3.077h.023a1.717,1.717,0,0,1,1.551-.846c1.081,0,1.739.846,1.739,2.185Zm6.18-2.279h-3.431a1.481,1.481,0,0,0,1.621,1.527,4.286,4.286,0,0,0,1.386-.235l.188.8a4.3,4.3,0,0,1-1.715.305,2.388,2.388,0,0,1-2.561-2.584,2.493,2.493,0,0,1,2.42-2.748,2.153,2.153,0,0,1,2.138,2.443A1.928,1.928,0,0,1,872.1,126.448Zm-1.034-.822c0-.8-.4-1.362-1.128-1.362a1.345,1.345,0,0,0-1.245,1.362Z" transform="translate(-740.252 -114.116)" fill="#fff"/>
</svg>
